<svg width="56" height="56" viewBox="0 0 56 56" fill="none" xmlns="http://www.w3.org/2000/svg">
<path d="M17.5 39.0634C17.5 36.7466 19.1894 35.1 21 35.1H35C36.8106 35.1 38.5 36.7466 38.5 39.0634V53.8146C38.5 54.0459 38.4147 54.2303 38.3077 54.3472C38.2026 54.462 38.0927 54.5 38 54.5H18C17.9073 54.5 17.7974 54.462 17.6923 54.3472C17.5853 54.2303 17.5 54.0459 17.5 53.8146V39.0634ZM1.5 3C1.5 2.17157 2.17157 1.5 3 1.5H53C53.8284 1.5 54.5 2.17157 54.5 3V26.8667C54.5 27.6951 53.8284 28.3667 53 28.3667H3C2.17157 28.3667 1.5 27.6951 1.5 26.8667V3Z" fill="white" stroke="#04875A" stroke-width="3"/>
</svg>
