<svg width="102" height="39" viewBox="0 0 102 39" fill="none" xmlns="http://www.w3.org/2000/svg">
<path d="M34.7344 35.2812H31.2188V11.7812H34.7344V13.4375C36.1198 12.0521 37.6927 11.3594 39.4531 11.3594C41.5469 11.3594 43.2708 12.1302 44.625 13.6719C46 15.2031 46.6875 17.1354 46.6875 19.4688C46.6875 21.75 46.0052 23.651 44.6406 25.1719C43.2865 26.6823 41.5781 27.4375 39.5156 27.4375C37.7344 27.4375 36.1406 26.724 34.7344 25.2969V35.2812ZM43.0938 19.4844C43.0938 18.026 42.6979 16.8385 41.9062 15.9219C41.1042 14.9948 40.0938 14.5312 38.875 14.5312C37.5833 14.5312 36.5365 14.9792 35.7344 15.875C34.9323 16.7708 34.5312 17.9479 34.5312 19.4062C34.5312 20.8333 34.9323 22.0104 35.7344 22.9375C36.526 23.8438 37.5677 24.2969 38.8594 24.2969C40.0781 24.2969 41.0833 23.8385 41.875 22.9219C42.6875 22.0052 43.0938 20.8594 43.0938 19.4844Z" fill="#222222"/>
<path d="M53.9219 0.609375V27H50.4062V0.609375H53.9219Z" fill="#222222"/>
<path d="M69.5938 11.7812H73.125V27H69.5938V25.4062C68.1458 26.7604 66.5885 27.4375 64.9219 27.4375C62.8177 27.4375 61.0781 26.6771 59.7031 25.1562C58.3385 23.6042 57.6562 21.6667 57.6562 19.3438C57.6562 17.0625 58.3385 15.1615 59.7031 13.6406C61.0677 12.1198 62.776 11.3594 64.8281 11.3594C66.599 11.3594 68.1875 12.0885 69.5938 13.5469V11.7812ZM61.25 19.3438C61.25 20.8021 61.6406 21.9896 62.4219 22.9062C63.224 23.8333 64.2344 24.2969 65.4531 24.2969C66.7552 24.2969 67.8073 23.849 68.6094 22.9531C69.4115 22.026 69.8125 20.849 69.8125 19.4219C69.8125 17.9948 69.4115 16.8177 68.6094 15.8906C67.8073 14.9844 66.7656 14.5312 65.4844 14.5312C64.276 14.5312 63.2656 14.9896 62.4531 15.9062C61.651 16.8333 61.25 17.9792 61.25 19.3438Z" fill="#222222"/>
<path d="M81.1875 15.0625V27H77.6719V15.0625H76.1719V11.7812H77.6719V6.20312H81.1875V11.7812H83.9219V15.0625H81.1875Z" fill="#222222"/>
<path d="M91.3594 23.6875H100.406V27H84.3906L94.25 15.0625H86.4844V11.7812H101.203L91.3594 23.6875Z" fill="#222222"/>
<path fill-rule="evenodd" clip-rule="evenodd" d="M12.9191 7.88341C12.36 7.65702 11.7339 7.66199 11.1785 7.89723C10.6231 8.13247 10.1839 8.5787 9.95752 9.13777L8.14643 13.6103C8.52565 13.954 8.82995 14.3788 9.03341 14.8592C9.40155 15.7284 9.40933 16.7082 9.05503 17.5831L8.63933 18.6097L17.1807 22.0685L17.5964 21.0419C17.9507 20.167 18.6381 19.4686 19.5072 19.1005C19.9876 18.897 20.5017 18.8036 21.0133 18.8206L22.8244 14.3481C23.0508 13.789 23.0458 13.1629 22.8106 12.6075C22.5753 12.0521 22.1291 11.6129 21.57 11.3865L12.9191 7.88341ZM23.2856 19.7408L25.0967 15.2683C25.5671 14.1065 25.5568 12.8055 25.068 11.6514C24.5792 10.4973 23.6519 9.58467 22.4902 9.11424L13.8392 5.6111C12.6775 5.14067 11.3765 5.151 10.2224 5.63982C9.0683 6.12863 8.15564 7.05589 7.68522 8.21761L5.87412 12.6901C5.36256 12.6732 4.84842 12.7665 4.36806 12.97C3.49888 13.3381 2.81154 14.0365 2.45724 14.9114L0.705676 19.2369C0.351383 20.1118 0.359163 21.0916 0.727303 21.9608C1.08775 22.8118 1.76474 23.4885 2.61409 23.849L2.19818 24.8761C1.94409 25.5035 2.24678 26.2182 2.87426 26.4723C3.50174 26.7264 4.2164 26.4237 4.47049 25.7962L4.88621 24.7696L15.5904 29.1042L15.1747 30.1308C14.9206 30.7582 15.2232 31.4729 15.8507 31.727C16.4782 31.9811 17.1929 31.6784 17.447 31.0509L17.8629 30.0239C18.7237 30.3559 19.6808 30.341 20.5318 29.9805C21.401 29.6124 22.0884 28.914 22.4426 28.0391L24.1942 23.7136C24.5485 22.8387 24.5407 21.8589 24.1726 20.9897C23.9691 20.5093 23.6648 20.0845 23.2856 19.7408ZM18.728 27.7298C19.0003 27.8401 19.3052 27.8377 19.5757 27.7231C19.8462 27.6085 20.0601 27.3912 20.1703 27.1189L21.9219 22.7935C22.0322 22.5212 22.0297 22.2163 21.9152 21.9458C21.8006 21.6753 21.5833 21.4614 21.311 21.3512C21.0388 21.2409 20.7339 21.2433 20.4634 21.3579C20.1929 21.4725 19.979 21.6898 19.8687 21.962L18.993 24.1248C18.8709 24.4261 18.6342 24.6666 18.3349 24.7934C18.0355 24.9202 17.698 24.9229 17.3967 24.8009L6.58302 20.4219C5.95554 20.1679 5.65285 19.4532 5.90694 18.8257L6.78273 16.663C6.89298 16.3907 6.89056 16.0858 6.77599 15.8153C6.66143 15.5448 6.44411 15.3309 6.17185 15.2207C5.89958 15.1104 5.59467 15.1128 5.32418 15.2274C5.0537 15.342 4.83981 15.5593 4.72955 15.8316L2.97798 20.157C2.86773 20.4293 2.87015 20.7342 2.98472 21.0047C3.09928 21.2752 3.3166 21.4891 3.58886 21.5993L18.728 27.7298Z" fill="#00DB90"/>
<path fill-rule="evenodd" clip-rule="evenodd" d="M28 39H0V35.5H28V39Z" fill="#222222"/>
</svg>
