<svg width="100" height="464" viewBox="0 0 100 464" fill="none" xmlns="http://www.w3.org/2000/svg">
<path d="M2 5C2 3.34315 3.34315 2 5 2H95C96.6569 2 98 3.34315 98 5V15C98 16.6569 96.6569 18 95 18H5C3.34315 18 2 16.6569 2 15V5Z" stroke="#222222" stroke-width="3"/>
<path d="M16 25C16 23.3431 17.3431 22 19 22H31C32.6569 22 34 23.3431 34 25V41C34 42.6569 32.6569 44 31 44H19C17.3431 44 16 42.6569 16 41V25Z" stroke="#222222" stroke-width="3"/>
<path d="M61 25C61 23.3431 62.3431 22 64 22H76C77.6569 22 79 23.3431 79 25V41C79 42.6569 77.6569 44 76 44H64C62.3431 44 61 42.6569 61 41V25Z" stroke="#222222" stroke-width="3"/>
<path d="M2 459C2 460.657 3.34315 462 5 462H95C96.6569 462 98 460.657 98 459V449C98 447.343 96.6569 446 95 446H5C3.34315 446 2 447.343 2 449V459Z" stroke="#222222" stroke-width="3"/>
<path d="M16 439C16 440.657 17.3431 442 19 442H31C32.6569 442 34 440.657 34 439V423C34 421.343 32.6569 420 31 420H19C17.3431 420 16 421.343 16 423V439Z" stroke="#222222" stroke-width="3"/>
<path d="M61 439C61 440.657 62.3431 442 64 442H76C77.6569 442 79 440.657 79 439V423C79 421.343 77.6569 420 76 420H64C62.3431 420 61 421.343 61 423V439Z" stroke="#222222" stroke-width="3"/>
<path d="M7 146C7 144.343 8.34315 143 10 143H51C52.6569 143 54 144.343 54 146V156C54 157.657 52.6569 159 51 159H10C8.34315 159 7 157.657 7 156V146Z" stroke="#222222" stroke-width="3"/>
<path d="M16 138C16 136.343 17.3431 135 19 135H43C44.6569 135 46 136.343 46 138V143H16V138Z" stroke="#222222" stroke-width="3"/>
<path d="M40 176C40 180.971 35.9706 185 31 185C26.0294 185 22 180.971 22 176C22 171.029 26.0294 167 31 167C35.9706 167 40 171.029 40 176Z" stroke="#222222" stroke-width="3"/>
<path d="M12 196C12 194.343 13.3431 193 15 193H24C25.6569 193 27 194.343 27 196V202C27 203.657 25.6569 205 24 205H15C13.3431 205 12 203.657 12 202V196Z" stroke="#222222" stroke-width="3"/>
<path d="M35 196C35 194.343 36.3431 193 38 193H47C48.6569 193 50 194.343 50 196V202C50 203.657 48.6569 205 47 205H38C36.3431 205 35 203.657 35 202V196Z" stroke="#222222" stroke-width="3"/>
<path d="M7 253C7 251.343 8.34315 250 10 250H51C52.6569 250 54 251.343 54 253V263C54 264.657 52.6569 266 51 266H10C8.34315 266 7 264.657 7 263V253Z" stroke="#222222" stroke-width="3"/>
<path d="M16 245C16 243.343 17.3431 242 19 242H43C44.6569 242 46 243.343 46 245V250H16V245Z" stroke="#222222" stroke-width="3"/>
<path d="M40 283C40 287.971 35.9706 292 31 292C26.0294 292 22 287.971 22 283C22 278.029 26.0294 274 31 274C35.9706 274 40 278.029 40 283Z" stroke="#222222" stroke-width="3"/>
<path d="M12 303C12 301.343 13.3431 300 15 300H24C25.6569 300 27 301.343 27 303V309C27 310.657 25.6569 312 24 312H15C13.3431 312 12 310.657 12 309V303Z" stroke="#222222" stroke-width="3"/>
<path d="M35 303C35 301.343 36.3431 300 38 300H47C48.6569 300 50 301.343 50 303V309C50 310.657 48.6569 312 47 312H38C36.3431 312 35 310.657 35 309V303Z" stroke="#222222" stroke-width="3"/>
</svg>
